<?xml version="1.0" encoding="UTF-8"?><svg id="Layer_1" xmlns="http://www.w3.org/2000/svg" viewBox="0 0 84.53 76.42">
    <defs>
        <style>
            .cls-1 {
                fill: #fff;
            }
        </style>
    </defs>
    <path class="cls-1"
        d="M70.96,25.25c-1.95-1.95-5.12-1.95-7.07,0l-16.62,16.62V5c0-2.76-2.24-5-5-5s-5,2.24-5,5V41.87L20.64,25.25c-1.95-1.95-5.12-1.95-7.07,0-1.95,1.95-1.95,5.12,0,7.07l25.16,25.16c.23,.23,.49,.44,.76,.62,.12,.08,.25,.14,.38,.2,.16,.09,.31,.18,.48,.25,.16,.07,.34,.11,.5,.16,.14,.04,.28,.1,.43,.13,.32,.06,.65,.1,.98,.1s.66-.03,.98-.1c.15-.03,.29-.09,.43-.13,.17-.05,.34-.09,.5-.15,.17-.07,.33-.17,.49-.26,.12-.07,.25-.12,.37-.2,.28-.18,.53-.39,.77-.63l25.16-25.15c1.95-1.95,1.95-5.12,0-7.07Z" />
    <path class="cls-1" d="M79.53,76.42H5c-2.76,0-5-2.24-5-5s2.24-5,5-5H79.53c2.76,0,5,2.24,5,5s-2.24,5-5,5Z" />
</svg>