<?xml version="1.0" encoding="UTF-8"?><svg id="Layer_1" xmlns="http://www.w3.org/2000/svg" viewBox="0 0 111.42 111.66"><defs><style>.cls-1{fill:#fff;}</style></defs><polygon class="cls-1" points="30.15 7.45 30.15 30.27 7.33 30.27 1.33 24.28 20.09 24.27 0 4.18 4.18 0 24.15 19.97 24.16 1.45 30.15 7.45"/><polygon class="cls-1" points="30.15 81.39 30.15 104.21 24.16 110.21 24.15 91.69 4.18 111.66 0 107.48 20.09 87.39 1.33 87.38 7.33 81.39 30.15 81.39"/><polygon class="cls-1" points="91.33 24.27 110.09 24.28 104.09 30.27 81.27 30.27 81.27 7.45 87.26 1.45 87.27 19.97 107.24 0 111.42 4.18 91.33 24.27"/><polygon class="cls-1" points="111.42 107.48 107.24 111.66 87.27 91.69 87.26 110.21 81.27 104.21 81.27 81.39 104.09 81.39 110.09 87.38 91.33 87.39 111.42 107.48"/><g><path class="cls-1" d="M38.6,52.33v-11.14h3.12c3.35,0,5.92,2.43,5.92,5.57s-2.59,5.57-5.97,5.57h-3.07Zm2.22-2h.83c2.3,0,3.76-1.38,3.76-3.57s-1.46-3.57-3.68-3.57h-.91v7.14Z"/><path class="cls-1" d="M53.51,46.6c-.18-.05-.37-.06-.56-.06-.75,0-1.2,.38-1.38,1.01l-.02,4.79h-2.24l.02-7.51h2.18l.03,.42c.34-.26,.88-.56,1.6-.56,.4,0,.96,.08,1.07,.19l-.35,1.79-.35-.06Z"/><path class="cls-1" d="M59.2,44.63c2.21,0,4.02,1.78,4.02,3.91s-1.81,3.94-4.02,3.94-4.03-1.78-4.03-3.94,1.81-3.91,4.03-3.91Zm-1.87,3.92c0,1.09,.83,1.97,1.87,1.97s1.86-.88,1.86-1.97-.83-1.99-1.86-1.99-1.87,.88-1.87,1.99Z"/><path class="cls-1" d="M67.25,45.12c.43-.24,.93-.43,1.62-.43,2.26,0,4.03,1.6,4.03,3.94s-1.78,3.89-4.03,3.89c-.71,0-1.23-.24-1.6-.5v4.39h-2.27l-.02-11.59h2.27v.3Zm.06,4.5c.34,.59,.9,.93,1.55,.93,1.02,0,1.84-.85,1.84-1.92s-.82-1.95-1.84-1.95c-.64,0-1.2,.34-1.57,.93l.02,2.02Z"/><path class="cls-1" d="M45.77,59.19h2.24v11.14h-2.24v-5.07h-5.19v5.07h-2.24v-11.14h2.24v4h5.19v-4Z"/><path class="cls-1" d="M57.26,68.87c-.64,.82-2.1,1.6-3.38,1.6-2.22,0-4.03-1.76-4.03-3.94s1.82-3.91,4.03-3.91,3.89,1.78,3.81,4.4l-5.63-.02c.21,.9,.93,1.5,1.82,1.5,.66,0,1.34-.35,1.79-.94l1.58,1.3Zm-1.81-3.41c-.26-.58-.93-.99-1.7-.99-.66,0-1.28,.37-1.58,.99h3.28Z"/><path class="cls-1" d="M63.64,64.6c-.18-.05-.37-.06-.56-.06-.75,0-1.2,.38-1.38,1.01l-.02,4.79h-2.24l.02-7.51h2.18l.03,.42c.34-.26,.88-.56,1.6-.56,.4,0,.96,.08,1.07,.19l-.35,1.79-.35-.06Z"/><path class="cls-1" d="M72.72,68.87c-.64,.82-2.1,1.6-3.38,1.6-2.22,0-4.03-1.76-4.03-3.94s1.83-3.91,4.03-3.91,3.89,1.78,3.81,4.4l-5.63-.02c.21,.9,.93,1.5,1.83,1.5,.66,0,1.34-.35,1.79-.94l1.58,1.3Zm-1.81-3.41c-.26-.58-.93-.99-1.7-.99-.66,0-1.28,.37-1.58,.99h3.28Z"/></g></svg>