<?xml version="1.0" encoding="UTF-8"?><svg id="Layer_1" xmlns="http://www.w3.org/2000/svg" viewBox="0 0 69.57 72.99">
    <defs>
        <style>
            .cls-1 {
                fill: #fff;
            }
        </style>
    </defs>
    <path class="cls-1"
        d="M33.07,72.99c-1.28,0-2.56-.49-3.54-1.46-1.95-1.95-1.95-5.12,0-7.07l27.96-27.96L29.54,8.54c-1.95-1.95-1.95-5.12,0-7.07,1.95-1.95,5.12-1.95,7.07,0l31.5,31.5c1.95,1.95,1.95,5.12,0,7.07l-31.5,31.5c-.98,.98-2.26,1.46-3.54,1.46Z" />
    <path class="cls-1"
        d="M5,72.99c-.64,0-1.29-.12-1.91-.38-1.87-.77-3.09-2.6-3.09-4.62V5C0,2.98,1.22,1.15,3.09,.38,4.96-.39,7.11,.03,8.54,1.46l31.5,31.5c.94,.94,1.46,2.21,1.46,3.54s-.53,2.6-1.46,3.54l-31.5,31.5c-.96,.96-2.24,1.46-3.54,1.46ZM10,17.07V55.92l19.43-19.43L10,17.07Z" />
</svg>