<?xml version="1.0" encoding="UTF-8"?><svg id="Layer_1" xmlns="http://www.w3.org/2000/svg" viewBox="0 0 315 373.55"><defs><style>.cls-1{fill:#fff;}.cls-2{fill:#bfbfbf;}.cls-3{fill:#56c5ef;}.cls-4{fill:#e0dae3;}.cls-5{fill:#6c6e70;}</style></defs><path id="Overall_Outline" class="cls-1" d="M282.5,0H32.5C14.58,0,0,14.58,0,32.5v250c0,17.92,14.58,32.5,32.5,32.5h250c.97,0,1.92-.04,2.87-.13,16.58-1.45,29.63-15.42,29.63-32.37V32.5c0-17.92-14.58-32.5-32.5-32.5Zm17.5,282.5c0,4.15-1.45,7.97-3.88,10.98-3.21,3.97-8.12,6.52-13.62,6.52H32.5c-9.65,0-17.5-7.85-17.5-17.5V32.5c0-9.65,7.85-17.5,17.5-17.5h250c9.65,0,17.5,7.85,17.5,17.5v250Z"/><path id="Mountain1" class="cls-5" d="M66.4,290l88.58-88.57,17.69-17.7c3.9-3.9,10.23-3.9,14.14,0l102.3,102.3c-1.26,2.36-3.75,3.97-6.61,3.97H66.4Z"/><path class="cls-4" d="M154.98,201.43l-88.58,88.57H32.5c-4.14,0-7.5-3.37-7.5-7.5v-79.45l55.54-55.54c5.67-5.67,14.86-5.67,20.52,0l14.71,14.71-34.88,34.89c-6.83,6.82-6.83,17.92,0,24.75,3.3,3.3,7.7,5.12,12.37,5.12s9.07-1.82,12.38-5.12l34.88-34.89,14.46,14.46h0Z"/><path class="cls-2" d="M248.85,145.82c25.34-25.34,25.34-66.58,0-91.92s-66.58-25.34-91.92,0c-23.55,23.55-25.2,60.81-4.99,86.31l-63.98,63.98c-2.93,2.93-2.93,7.68,0,10.61s7.68,2.93,10.61,0l63.98-63.98c25.49,20.21,62.76,18.56,86.31-4.99h-.01Zm-81.32-10.62c-19.5-19.5-19.5-51.22,0-70.71,19.5-19.5,51.22-19.5,70.71,0,19.5,19.5,19.5,51.22,0,70.71-19.5,19.5-51.22,19.5-70.71,0h0Z"/><path class="cls-3" d="M231.17,128.14c-7.54,7.54-17.58,11.69-28.28,11.69s-20.75-4.15-28.29-11.69c-15.59-15.59-15.59-40.97,0-56.57,7.54-7.54,17.59-11.69,28.29-11.69s20.74,4.15,28.28,11.69c15.6,15.6,15.6,40.98,0,56.57h0Z"/><g><path class="cls-1" d="M77.73,352.9c1.6,2.1,4.9,4.4,8.4,4.4,3.05,0,6.3-1.55,6.3-4.7,0-2.6-3.8-4.2-6.5-5.4-3.9-1.75-7.9-4-9.65-6.6-1.85-2.8-1.35-7.25,.8-9.9,1.95-2.35,5.3-3.9,9.25-3.9,4.8,0,8.5,1.55,10.45,3.75l-4.05,4.15c-.6-.6-3.3-2.75-6.15-2.75-2.55,0-5.35,1.3-5.35,4.3,0,2.65,3.1,3.5,5.9,4.85,4,1.85,8.7,4.6,10.3,7.8,.95,1.95,1.05,4.2,.45,6.6-1.05,4-6.05,7.3-11.5,7.3s-10.15-2.25-13-5.85l4.35-4.05h0Z"/><path class="cls-1" d="M106.03,327.75c1.85,0,3.25,1.3,3.25,3.25s-1.4,3.25-3.25,3.25c-1.95,0-3.3-1.3-3.3-3.25s1.35-3.25,3.3-3.25Zm2.8,11v23.55h-5.7v-23.55h5.7Z"/><path class="cls-1" d="M135.43,341.8c2.95-2.25,4.85-3.45,8.5-3.45,3.45,0,5.55,1.05,7.7,3.2,2.15,2.05,3.1,5.2,3.1,9v11.75h-5.45v-10.85c0-3.7-.8-7.8-5.35-7.8-2.6,0-4.8,1.5-5.95,3.55,.2,1.05,.3,2.15,.3,3.35v11.75h-5.45v-10.85c0-3.7-.8-7.8-5.35-7.8-2.55,0-4.75,1.45-5.9,3.5l-.05,15.15h-5.75l.05-23.5h5.5l.25,1.95c1.45-1.2,3.1-2.4,5.9-2.4,3.3,0,5.4,.9,7.95,3.45h0Z"/><path class="cls-1" d="M135.43,341.8c2.95-2.25,4.85-3.45,8.5-3.45,3.45,0,5.55,1.05,7.7,3.2,2.15,2.05,3.1,5.2,3.1,9v11.75h-5.45v-10.85c0-3.7-.8-7.8-5.35-7.8-2.6,0-4.8,1.5-5.95,3.55,.2,1.05,.3,2.15,.3,3.35v11.75h-5.45v-10.85c0-3.7-.8-7.8-5.35-7.8-2.55,0-4.75,1.45-5.9,3.5l-.05,15.15h-5.75l.05-23.5h5.5l.25,1.95c1.45-1.2,3.1-2.4,5.9-2.4,3.3,0,5.4,.9,7.95,3.45h0Z"/><path class="cls-1" d="M177.83,341.1v-2.35h5.7l.05,23.55h-5.7v-2.55c-.95,.7-2.35,2.9-6,2.9-6.7,0-12.15-5.4-12.15-12.2s5.45-12.1,12.15-12.1c3.9,0,5.1,2.05,5.95,2.75h0Zm-.15,6.1c-1.15-2.05-3.25-3.4-5.8-3.4-3.75,0-6.7,3-6.7,6.65s2.95,6.7,6.7,6.7c2.55,0,4.7-1.35,5.85-3.4l-.05-6.55h0Z"/><path class="cls-1" d="M192.67,364.95c.9,1.15,4.25,3.4,7.8,3.4,3.75,0,6.7-1.2,6.7-6.55v-2.05c-.9,.75-2.45,2.9-5.95,2.9-6.7,0-12.15-5.45-12.15-12.1s5.45-12.2,12.15-12.2c2.65,0,4.4,.95,6,2.1v-1.7h5.7l-.05,21.6c0,4.9-.6,8-3.95,10.65-1.7,1.4-5.1,2.55-7.7,2.55s-5.55-.75-7.4-1.7c-1.95-.9-4.35-2.95-4.75-3.6l3.6-3.3h0Zm8.55-7.75c2.55,0,4.65-1.35,5.8-3.4l.05-6.55c-1.15-2-3.3-3.4-5.85-3.4-3.75,0-6.7,2.95-6.7,6.7s2.95,6.65,6.7,6.65h0Z"/><path class="cls-1" d="M241.62,351.6l-18.25-.05c.55,3.35,3.35,5.75,6.75,5.75,2.4,0,4.65-1.25,5.9-2.65l4.1,3.35c-2.15,2.55-6.3,4.65-10,4.65-6.7,0-12.15-5.4-12.15-12.2s5.45-12.1,12.15-12.1,11.5,5.3,11.5,13.25Zm-5.5-4.15c-.55-2.15-3.2-4.1-6.4-4.1-2.95,0-5.3,1.95-6.15,4.1h12.55Z"/></g></svg>