<?xml version="1.0" encoding="UTF-8"?>
<svg id="Layer_1" xmlns="http://www.w3.org/2000/svg" viewBox="0 0 448 288">
    <defs>
        <style>
            .cls-1 {
                fill: #fff;
            }
        </style>
    </defs>
    <path class="cls-1"
        d="M366.1,121.2c0-1.2,.2-2.4,.2-3.6C366.3,52.6,314.5,0,250.6,0c-46.1,0-85.7,27.4-104.3,67-8.1-4.1-17.2-6.5-26.8-6.5-29.5,0-54.1,21.9-58.8,50.5C25.3,123.2,0,157.1,0,197c0,50.2,40.1,91,89.5,91h102.5v-80h-48.2l80.2-83.7,80.2,83.6h-48.2v80h110.3c45.2,0,81.7-37.5,81.7-83.4s-36.7-83.2-81.9-83.3Z" />
</svg>